<svg enable-background="new 0 0 1984.3 2043.9" viewBox="0 0 1984.3 2043.9" xmlns="http://www.w3.org/2000/svg"><g fill="#fff" transform="matrix(14.1284 0 0 14.1284 -594.550179 -939.230466)"><path d="m44.5 191.7h3.2c1.1 0 1.7-.5 1.7-1.6v-1.4c0-1.1-.6-1.6-1.8-1.6h-3.1c-.2 0-.2.1-.2.2v4.2c0 .2.1.2.2.2zm0-6.4h2.9c1.1 0 1.7-.6 1.7-1.7v-1c0-1.1-.6-1.6-1.7-1.6h-3c-.2 0-.2.1-.2.2v3.9c.1.1.2.2.3.2zm-2.4 7.9v-13.8c0-.3.1-.4.4-.4h5.4c1.1 0 2 .3 2.6.9s.9 1.5.9 2.6v1.1c0 1.3-.6 2.2-1.9 2.5.6.1 1.1.3 1.5.8.4.4.6 1 .6 1.8v1.4c0 1.1-.3 2-.9 2.6s-1.5.9-2.6.9h-5.6c-.3 0-.4-.1-.4-.4z"/><path d="m64.2 193.6h-4.9c-1.1 0-2-.3-2.6-.9s-.9-1.5-.9-2.6v-4.5c0-1.1.3-2 .9-2.6s1.5-.9 2.6-.9h1.9c1.1 0 2 .3 2.6.9s.9 1.5.9 2.6v2.9c0 .3-.1.4-.4.4h-6.1c-.2 0-.2.1-.2.2v1c0 1.1.6 1.7 1.7 1.7h4.6c.3 0 .4.1.4.4v1.1c-.1.2-.3.3-.5.3zm-6-6.3h4c.2 0 .2-.1.2-.2v-1.4c0-.6-.1-1-.4-1.3s-.7-.4-1.2-.4h-1.2c-.6 0-1 .1-1.2.4-.3.3-.4.7-.4 1.3v1.4c0 .1 0 .2.2.2z"/><path d="m72.9 193.6h-4.2c-.3 0-.4-.1-.4-.4v-1.1c0-.2.1-.4.4-.4h3.8c1 0 1.5-.3 1.5-1v-.3c0-.6-.4-1.1-1.1-1.4l-2.5-1.2c-.8-.4-1.3-.8-1.7-1.2-.3-.4-.5-1-.5-1.7 0-1.9 1.1-2.9 3.2-2.9h3.8c.2 0 .4.1.4.4v1.1c0 .3-.1.4-.4.4h-3.2c-.5 0-.8.1-1 .2-.2.2-.4.4-.4.6v.2c0 .5.4.9 1.2 1.3l2.5 1.3c.8.3 1.3.8 1.6 1.2.3.5.4 1.1.4 1.8 0 2.1-1.1 3.1-3.4 3.1z"/><path d="m84.4 193.6h-4.2c-.3 0-.4-.1-.4-.4v-1.1c0-.2.1-.4.4-.4h3.8c1 0 1.5-.3 1.5-1v-.3c0-.6-.4-1.1-1.1-1.4l-2.5-1.2c-.8-.4-1.3-.8-1.7-1.2-.3-.4-.5-1-.5-1.7 0-1.9 1.1-2.9 3.2-2.9h3.8c.2 0 .4.1.4.4v1.1c0 .3-.1.4-.4.4h-3.3c-.5 0-.8.1-1 .2-.2.2-.4.4-.4.6v.2c0 .5.4.9 1.2 1.3l2.5 1.3c.8.3 1.3.8 1.6 1.2.3.5.4 1.1.4 1.8.1 2.1-1 3.1-3.3 3.1z"/><path d="m100 193.6h-4.9c-1.1 0-2-.3-2.6-.9s-.9-1.5-.9-2.6v-4.5c0-1.1.3-2 .9-2.6s1.5-.9 2.6-.9h1.9c1.1 0 2 .3 2.6.9s.9 1.5.9 2.6v2.9c0 .3-.1.4-.4.4h-6.1c-.2 0-.2.1-.2.2v1c0 1.1.6 1.7 1.7 1.7h4.6c.3 0 .4.1.4.4v1.1c-.1.2-.3.3-.5.3zm-6-6.3h4c.2 0 .2-.1.2-.2v-1.4c0-.6-.1-1-.4-1.3s-.7-.4-1.2-.4h-1.2c-.6 0-1 .1-1.2.4-.3.3-.4.7-.4 1.3v1.4c0 .1 0 .2.2.2z"/><path d="m106.4 193.6h-1.4c-.3 0-.4-.1-.4-.4v-10.8c0-.3.1-.4.4-.4h1.4c.3 0 .4.1.4.4v.9h.1c.2-.4.4-.7.9-.9.4-.2.9-.3 1.4-.3h.8c.3 0 .4.1.4.4v1.2c0 .3-.1.4-.4.4h-1.4c-1.3 0-1.9.7-1.9 2.1v7.2c.1.1 0 .2-.3.2z"/><path d="m120.2 190.1v-.6c0-.3.1-.4.4-.4h1.4c.3 0 .4.1.4.4v.4c0 .6.1 1.1.4 1.4s.7.4 1.4.4h1.6c.6 0 1.1-.1 1.4-.4s.4-.8.4-1.4v-.5c0-.5-.2-.9-.6-1.1-.4-.3-.8-.5-1.4-.5-.5-.1-1.1-.2-1.8-.4-.6-.2-1.2-.3-1.8-.5-.5-.2-1-.6-1.4-1.1s-.6-1.2-.6-2.1v-1c0-1.1.3-2 .9-2.6s1.5-.9 2.6-.9h2.4c1.1 0 2 .3 2.6.9s.9 1.5.9 2.6v.5c0 .3-.1.4-.4.4h-1.4c-.3 0-.4-.1-.4-.4v-.3c0-.6-.1-1.1-.4-1.4s-.7-.4-1.4-.4h-1.4c-.6 0-1.1.1-1.4.4s-.4.8-.4 1.5v.7c0 .7.5 1.1 1.5 1.4.4.1.9.2 1.4.3s1 .2 1.6.3c.5.2 1 .4 1.4.6s.8.6 1.1 1.1.4 1.1.4 1.8v.9c0 1.1-.3 2-.9 2.6s-1.5.9-2.6.9h-2.5c-1.1 0-2-.3-2.6-.9-.5-.7-.8-1.5-.8-2.6z"/><path d="m142.4 193.6h-4.9c-1.1 0-2-.3-2.6-.9s-.9-1.5-.9-2.6v-4.5c0-1.1.3-2 .9-2.6s1.5-.9 2.6-.9h1.9c1.1 0 2 .3 2.6.9s.9 1.5.9 2.6v2.9c0 .3-.1.4-.4.4h-6.1c-.2 0-.2.1-.2.2v1c0 1.1.6 1.7 1.7 1.7h4.6c.3 0 .4.1.4.4v1.1c-.1.2-.2.3-.5.3zm-5.9-6.3h4c.2 0 .2-.1.2-.2v-1.4c0-.6-.1-1-.4-1.3s-.7-.4-1.2-.4h-1.2c-.6 0-1 .1-1.2.4-.3.3-.4.7-.4 1.3v1.4c-.1.1 0 .2.2.2z"/><path d="m148.9 193.6h-1.4c-.3 0-.4-.1-.4-.4v-15.1c0-.3.1-.4.4-.4h1.4c.3 0 .4.1.4.4v5.2h.1c.4-.8 1.1-1.2 2.3-1.2h1c1.1 0 1.9.3 2.5.9s.9 1.5.9 2.6v7.6c0 .3-.1.4-.4.4h-1.4c-.3 0-.4-.1-.4-.4v-7.6c0-1.1-.6-1.7-1.7-1.7h-1.1c-1.2 0-1.9.6-1.9 1.9v7.3c.1.4-.1.5-.3.5z"/><path d="m168.6 193.6h-4.9c-1.1 0-2-.3-2.6-.9s-.9-1.5-.9-2.6v-4.5c0-1.1.3-2 .9-2.6s1.5-.9 2.6-.9h1.9c1.1 0 2 .3 2.6.9s.9 1.5.9 2.6v2.9c0 .3-.1.4-.4.4h-6.1c-.2 0-.2.1-.2.2v1c0 1.1.6 1.7 1.7 1.7h4.6c.3 0 .4.1.4.4v1.1c-.1.2-.2.3-.5.3zm-6-6.3h4c.2 0 .2-.1.2-.2v-1.4c0-.6-.1-1-.4-1.3s-.7-.4-1.2-.4h-1.2c-.6 0-1 .1-1.2.4-.3.3-.4.7-.4 1.3v1.4c0 .1.1.2.2.2z"/><path d="m175 193.6h-1.4c-.3 0-.4-.1-.4-.4v-10.8c0-.3.1-.4.4-.4h1.4c.3 0 .4.1.4.4v.8h.1c.4-.8 1.1-1.2 2.3-1.2h1c1.1 0 1.9.3 2.5.9s.9 1.5.9 2.6v7.6c0 .3-.1.4-.4.4h-1.4c-.3 0-.4-.1-.4-.4v-7.6c0-1.1-.6-1.7-1.7-1.7h-1.1c-1.2 0-1.9.6-1.9 1.9v7.3c.1.5 0 .6-.3.6z"/><path d="m48.5 211.1h-5c-.1 0-.2-.1-.2-.2v-9.6c0-.1.1-.2.2-.2h.7c.1 0 .2.1.2.2v8.6c0 .1.1.1.2.1h3.9c.1 0 .2.1.2.2v.6c0 .3-.1.3-.2.3z"/><path d="m61.1 211.1h-.8c-.1 0-.2-.1-.1-.2l2.9-9.6c0-.1.1-.2.3-.2h1.1c.2 0 .3.1.3.2l2.9 9.6c0 .1 0 .2-.1.2h-.8c-.1 0-.2-.1-.2-.2l-.7-2.3h-3.9l-.7 2.3c-.1.2-.1.2-.2.2zm2.8-8.8-1.6 5.4h3.3z"/><path d="m80.9 211.1h-.7c-.1 0-.2-.1-.2-.2v-9.6c0-.1.1-.2.2-.2h.6c.1 0 .2 0 .2.1l4.3 7.6h.1v-7.5c0-.1.1-.2.2-.2h.7c.1 0 .2.1.2.2v9.6c0 .1-.1.2-.2.2h-.6c-.1 0-.2-.1-.3-.2l-4.3-7.5h-.1v7.5c.1.2.1.2-.1.2z"/><path d="m101 210.1h2.6c.9 0 1.3-.5 1.3-1.4v-5.3c0-.9-.4-1.4-1.3-1.4h-2.6c-.1 0-.2 0-.2.1v7.8c.1.2.1.2.2.2zm-1.3.8v-9.6c0-.1.1-.2.2-.2h3.8c.7 0 1.3.2 1.7.6s.6 1 .6 1.7v5.4c0 .7-.2 1.3-.6 1.7s-1 .6-1.7.6h-3.8c-.1 0-.2 0-.2-.2z"/><path d="m118.9 208.8v-.5c0-.1.1-.2.2-.2h.7c.1 0 .2.1.2.2v.4c0 .9.5 1.4 1.4 1.4h1.4c.9 0 1.4-.5 1.4-1.4v-.5c0-.7-.6-1.2-1.9-1.5-.5-.1-1-.2-1.6-.3-.5-.1-1-.4-1.3-.7-.4-.4-.5-.8-.5-1.5v-.8c0-.7.2-1.3.6-1.7s1-.6 1.7-.6h1.7c.7 0 1.3.2 1.7.6s.6 1 .6 1.7v.4c0 .2-.1.2-.2.2h-.7c-.1 0-.2-.1-.2-.2v-.3c0-.9-.5-1.4-1.4-1.4h-1.3c-.9 0-1.4.5-1.4 1.5v.6c0 .5.3.9 1 1.1.3.1.7.2 1 .2.4.1.8.2 1.1.3.4.1.7.2 1 .4s.6.4.8.7.3.7.3 1.2v.7c0 .7-.2 1.3-.6 1.7s-1 .6-1.7.6h-1.8c-.7 0-1.3-.2-1.7-.6-.2-.4-.5-.9-.5-1.7z"/><path d="m139.3 211.1h-.7c-.1 0-.2-.1-.2-.2v-9.6c0-.1.1-.2.2-.2h.7c.1 0 .2.1.2.2v4.1c0 .1.1.1.2.1h3.9c.1 0 .2 0 .2-.1v-4.1c0-.1.1-.2.2-.2h.7c.1 0 .2.1.2.2v9.6c0 .1-.1.2-.2.2h-.7c-.1 0-.2-.1-.2-.2v-4.2c0-.1-.1-.1-.2-.1h-3.9c-.1 0-.2 0-.2.1v4.2c0 .2-.1.2-.2.2z"/><path d="m163.4 201.1h.7c.1 0 .2.1.2.2v7.5c0 .7-.2 1.3-.6 1.7s-1 .6-1.7.6h-1.7c-.7 0-1.3-.2-1.7-.6s-.6-1-.6-1.7v-7.5c0-.1.1-.2.2-.2h.7c.1 0 .2.1.2.2v7.5c0 .9.4 1.4 1.3 1.4h1.5c.9 0 1.3-.5 1.3-1.4v-7.5c0-.1 0-.2.2-.2z"/><path d="m179.8 211.1h-.7c-.1 0-.2-.1-.2-.2v-8.7c0-.1-.1-.1-.2-.1h-2.1c-.2 0-.2-.1-.2-.2v-.6c0-.1.1-.2.2-.2h5.7c.2 0 .2.1.2.2v.6c0 .1-.1.2-.2.2h-2.1c-.1 0-.2 0-.2.1v8.7c0 .2-.1.2-.2.2z"/></g><g clip-rule="evenodd" fill-rule="evenodd"><path d="m955-.1c154 0 298.1 49.4 414 132.8l-22.6 26.8c-110.2-79.1-245.9-125.7-392.8-125.7-186.5 0-356 76.3-477.5 197.8-122.9 122.9-197.8 291-197.8 477.5s76.3 356 197.8 477.5c122.9 122.9 291 197.8 477.5 197.8 146.9 0 281.2-46.6 392.8-125.7l22.6 26.8c-117.3 83.4-260 132.8-414 132.8-196.4 0-373-79.1-501.6-207.7s-207.6-306.5-207.6-501.5c0-196.4 79.1-373 207.7-501.6s305.1-207.6 501.5-207.6" fill="#fff"/><path d="m955 479c33.9 0 66.4 7.1 94.7 19.8-17 15.5-28.3 36.7-28.3 62.2 0 45.2 36.7 81.9 81.9 81.9 24 0 46.6-11.3 62.2-28.3 12.7 29.7 19.8 60.8 19.8 94.7 0 127.2-103.1 231.7-231.7 231.7-127.2 0-231.7-103.1-231.7-231.7 2.8-127.2 106-230.3 233.1-230.3" fill="#fff"/><path d="m1361.2 304.2c-103.1-103.1-247.2-168.1-405.4-168.1s-302.3 63.6-405.5 168.1c-103.2 103.2-168.2 247.3-168.2 405.5s63.6 302.3 168.1 405.5c103.1 103.1 247.2 168.1 405.5 168.1s302.3-63.6 405.5-168.1c103.1-103.1 168.1-247.2 168.1-405.5s-64.9-300.9-168.1-405.5m-405.4-202c168.1 0 319.3 67.8 429.5 178s178 261.4 178 429.5-67.8 320.7-178 429.5-261.4 178-429.5 178-319.3-67.8-429.5-178-178-261.4-178-429.5 67.8-319.3 178-429.5c108.7-110.2 261.3-178 429.5-178" fill="#90c2c1"/><path d="m1407.1 175.8c175.2 127.2 288.2 319.3 288.2 534.1s-111.6 406.9-288.2 534.1c141.3-137 228.9-326.4 228.9-534.1s-87.6-397-228.9-534.1" fill="#fff"/></g></svg>