<svg clip-rule="evenodd" fill-rule="evenodd" stroke-linejoin="round" stroke-miterlimit="2" viewBox="0 0 1316 400" xmlns="http://www.w3.org/2000/svg"><g fill="#ffffff"><path d="m466.586 187.378h17.98c6.417 0 9.63-3.084 9.63-9.247v-7.963c0-6.163-3.381-9.246-10.147-9.246h-17.463c-.943 0-1.413.43-1.413 1.287v23.885c0 .857.47 1.284 1.413 1.284zm0-36.728h16.692c6.508 0 9.763-3.126 9.763-9.375v-5.905c0-6.167-3.17-9.246-9.504-9.246h-16.951c-.943 0-1.413.426-1.413 1.283v21.96c0 .857.47 1.283 1.413 1.283zm-13.868 45.203v-78.205c0-1.456.728-2.183 2.18-2.183h30.435c6.335 0 11.257 1.71 14.771 5.134 3.51 3.427 5.263 8.264 5.263 14.513v6.292c0 7.446-3.51 12.244-10.53 14.384 3.338.427 6.1 1.882 8.284 4.363 2.184 2.485 3.275 5.823 3.275 10.017v8.221c0 6.25-1.757 11.086-5.267 14.51s-8.389 5.138-14.638 5.138h-31.594c-1.451 0-2.18-.728-2.18-2.184zm125.352 2.184h-27.739c-6.335 0-11.238-1.757-14.705-5.267s-5.2-8.39-5.2-14.639v-25.685c0-6.335 1.733-11.234 5.2-14.7 3.467-3.468 8.37-5.201 14.705-5.201h10.53c6.335 0 11.258 1.733 14.768 5.2s5.267 8.366 5.267 14.701v16.31c0 1.541-.771 2.312-2.313 2.312h-34.415c-.943 0-1.416.427-1.416 1.284v5.52c0 6.254 3.126 9.376 9.375 9.376h25.944c1.537 0 2.308.771 2.308 2.313v6.421c0 1.37-.77 2.055-2.308 2.055zm-33.902-35.703h22.985c.857 0 1.284-.426 1.284-1.283v-8.217c0-3.256-.728-5.631-2.184-7.13-1.455-1.495-3.807-2.246-7.063-2.246h-7.063c-3.251 0-5.607.751-7.063 2.246-1.455 1.499-2.183 3.874-2.183 7.13v8.217c0 .857.43 1.283 1.287 1.283zm83.617 35.703h-23.63c-1.456 0-2.184-.728-2.184-2.184v-6.292c0-1.37.728-2.054 2.184-2.054h21.572c5.568 0 8.35-1.925 8.35-5.78v-1.541c0-3.424-2.015-6.034-6.038-7.834l-13.996-6.676c-4.367-2.054-7.533-4.324-9.505-6.808-1.968-2.481-2.95-5.737-2.95-9.76 0-11.042 6.12-16.563 18.363-16.563h21.314c1.374 0 2.059.724 2.059 2.18v6.295c0 1.452-.685 2.18-2.059 2.18h-18.747c-2.567 0-4.539.45-5.908 1.35-1.37.9-2.055 2.078-2.055 3.533v1.413c0 2.739 2.184 5.134 6.55 7.188l14.127 7.192c4.452 1.968 7.512 4.304 9.183 7 1.667 2.697 2.5 6.187 2.5 10.468 0 11.128-6.377 16.693-19.13 16.693zm65.253 0h-23.63c-1.456 0-2.184-.728-2.184-2.184v-6.292c0-1.37.728-2.054 2.184-2.054h21.572c5.568 0 8.35-1.925 8.35-5.78v-1.541c0-3.424-2.015-6.034-6.038-7.834l-13.996-6.676c-4.367-2.054-7.533-4.324-9.505-6.808-1.968-2.481-2.95-5.737-2.95-9.76 0-11.042 6.12-16.563 18.363-16.563h21.314c1.374 0 2.059.724 2.059 2.18v6.295c0 1.452-.685 2.18-2.059 2.18h-18.747c-2.567 0-4.539.45-5.908 1.35-1.37.9-2.055 2.078-2.055 3.533v1.413c0 2.739 2.184 5.134 6.55 7.188l14.127 7.192c4.453 1.968 7.512 4.304 9.183 7 1.667 2.697 2.5 6.187 2.5 10.468 0 11.128-6.374 16.693-19.13 16.693zm88.238 0h-27.74c-6.334 0-11.233-1.757-14.7-5.267-3.471-3.51-5.205-8.39-5.205-14.639v-25.685c0-6.335 1.734-11.234 5.205-14.7 3.467-3.468 8.366-5.201 14.7-5.201h10.53c6.336 0 11.258 1.733 14.768 5.2 3.514 3.467 5.267 8.366 5.267 14.701v16.31c0 1.541-.77 2.312-2.312 2.312h-34.415c-.943 0-1.413.427-1.413 1.284v5.52c0 6.254 3.127 9.376 9.376 9.376h25.939c1.542 0 2.313.771 2.313 2.313v6.421c0 1.37-.771 2.055-2.313 2.055zm-33.902-35.703h22.985c.857 0 1.287-.426 1.287-1.283v-8.217c0-3.256-.728-5.631-2.183-7.13-1.456-1.495-3.812-2.246-7.063-2.246h-7.063c-3.256 0-5.607.751-7.063 2.246-1.456 1.499-2.184 3.874-2.184 7.13v8.217c0 .857.427 1.283 1.284 1.283zm70.52 35.703h-8.092c-1.456 0-2.184-.728-2.184-2.184v-61.129c0-1.455.728-2.18 2.184-2.18h8.092c1.452 0 2.18.725 2.18 2.18v4.884h.516c.857-2.14 2.504-3.854 4.942-5.138 2.442-1.283 5.157-1.925 8.155-1.925h4.75c1.456 0 2.183.724 2.183 2.18v6.679c0 1.628-.727 2.312-2.183 2.054h-7.705c-7.106 0-10.659 3.898-10.659 11.688v40.707c0 1.456-.727 2.184-2.18 2.184zm78.029-20.035v-3.338c0-1.455.728-2.183 2.183-2.183h8.217c1.456 0 2.184.728 2.184 2.183v2.313c0 3.596.79 6.182 2.375 7.767s4.218 2.375 7.897 2.375h8.862c3.683 0 6.336-.833 7.963-2.504 1.624-1.667 2.438-4.386 2.438-8.155v-2.95c0-2.743-1.049-4.903-3.146-6.488s-4.688-2.61-7.767-3.08c-3.084-.473-6.464-1.134-10.147-1.991-3.682-.857-7.063-1.84-10.146-2.954-3.08-1.112-5.67-3.209-7.767-6.292-2.098-3.084-3.146-7.02-3.146-11.814v-5.396c0-6.249 1.776-11.148 5.33-14.7 3.552-3.554 8.451-5.33 14.7-5.33h13.614c6.335 0 11.28 1.776 14.834 5.33 3.553 3.552 5.33 8.451 5.33 14.7v2.825c0 1.456-.729 2.184-2.184 2.184h-8.221c-1.456 0-2.184-.728-2.184-2.184v-1.667c0-3.682-.79-6.315-2.375-7.9-1.585-1.58-4.214-2.375-7.896-2.375h-8.092c-3.679 0-6.312.837-7.897 2.504-1.585 1.671-2.375 4.516-2.375 8.542v3.98c0 3.854 2.782 6.464 8.346 7.834 2.485.598 5.2 1.111 8.155 1.541a67.575 67.575 0 0 1 8.926 1.926c2.997.857 5.736 1.991 8.217 3.404 2.485 1.412 4.496 3.553 6.038 6.421 1.541 2.868 2.308 6.355 2.308 10.463v5.01c0 6.248-1.776 11.151-5.325 14.704-3.553 3.553-8.456 5.33-14.705 5.33h-14.385c-6.249 0-11.171-1.777-14.767-5.33s-5.392-8.456-5.392-14.705zm126.377 20.035h-27.739c-6.335 0-11.234-1.757-14.7-5.267-3.468-3.51-5.201-8.39-5.201-14.639v-25.685c0-6.335 1.733-11.234 5.2-14.7 3.467-3.468 8.366-5.201 14.701-5.201h10.534c6.335 0 11.258 1.733 14.768 5.2s5.263 8.366 5.263 14.701v16.31c0 1.541-.771 2.312-2.313 2.312h-34.415c-.943 0-1.412.427-1.412 1.284v5.52c0 6.254 3.126 9.376 9.375 9.376h25.94c1.541 0 2.312.771 2.312 2.313v6.421c0 1.37-.77 2.055-2.312 2.055zm-33.902-35.703h22.99c.852 0 1.283-.426 1.283-1.283v-8.217c0-3.256-.728-5.631-2.184-7.13-1.455-1.495-3.811-2.246-7.063-2.246h-7.063c-3.251 0-5.607.751-7.063 2.246-1.455 1.499-2.183 3.874-2.183 7.13v8.217c0 .857.426 1.283 1.283 1.283zm70.52 35.703h-8.092c-1.455 0-2.183-.728-2.183-2.184v-85.913c0-1.452.728-2.18 2.183-2.18h8.092c1.456 0 2.184.728 2.184 2.18v29.41h.512c2.055-4.54 6.379-6.805 12.972-6.805h5.65c6.25 0 11.043 1.71 14.38 5.134 3.342 3.424 5.01 8.346 5.01 14.767v43.407c0 1.456-.772 2.184-2.313 2.184h-8.089c-1.455 0-2.183-.728-2.183-2.184v-42.89c0-6.335-3.126-9.505-9.376-9.505h-6.033c-7.02 0-10.53 3.64-10.53 10.917v41.478c0 1.456-.728 2.184-2.184 2.184zm111.869 0h-27.74c-6.335 0-11.237-1.757-14.704-5.267s-5.2-8.39-5.2-14.639v-25.685c0-6.335 1.733-11.234 5.2-14.7 3.467-3.468 8.37-5.201 14.705-5.201h10.53c6.335 0 11.257 1.733 14.767 5.2s5.267 8.366 5.267 14.701v16.31c0 1.541-.77 2.312-2.313 2.312h-34.414c-.943 0-1.413.427-1.413 1.284v5.52c0 6.254 3.123 9.376 9.372 9.376h25.943c1.542 0 2.312.771 2.312 2.313v6.421c0 1.37-.77 2.055-2.312 2.055zm-33.902-35.703h22.985c.857 0 1.283-.426 1.283-1.283v-8.217c0-3.256-.728-5.631-2.18-7.13-1.455-1.495-3.81-2.246-7.066-2.246h-7.063c-3.252 0-5.608.751-7.063 2.246-1.452 1.499-2.18 3.874-2.18 7.13v8.217c0 .857.427 1.283 1.284 1.283zm70.515 35.703h-8.088c-1.455 0-2.183-.728-2.183-2.184v-61.129c0-1.455.728-2.18 2.183-2.18h8.089c1.455 0 2.183.725 2.183 2.18v4.626h.513c2.058-4.54 6.378-6.805 12.971-6.805h5.65c6.25 0 11.047 1.71 14.385 5.134s5.008 8.346 5.008 14.767v43.407c0 1.456-.77 2.184-2.312 2.184h-8.092c-1.452 0-2.18-.728-2.18-2.184v-42.89c0-6.335-3.126-9.505-9.375-9.505h-6.038c-7.02 0-10.53 3.64-10.53 10.917v41.478c0 1.456-.728 2.184-2.183 2.184zm-718.487 99.585h-28.42c-.83 0-1.24-.41-1.24-1.24v-54.453c0-.826.41-1.24 1.24-1.24h3.983c.826 0 1.24.414 1.24 1.24v49.053c0 .532.294.798.885.798h22.312c.826 0 1.24.442 1.24 1.327v3.275c0 .83-.414 1.24-1.24 1.24zm71.479 0h-4.426c-.77 0-1.033-.41-.798-1.24l16.556-54.453c.238-.826.798-1.24 1.682-1.24h6.378c.885 0 1.444.414 1.68 1.24l16.559 54.453c.235.83-.031 1.24-.798 1.24h-4.516c-.65 0-1.06-.41-1.24-1.24l-4.16-12.925h-21.427l-4.164 12.925c-.235.83-.677 1.24-1.326 1.24zm16.027-50.293-9.12 30.638h18.594l-9.122-30.638zm96.71 50.293h-3.894c-.825 0-1.24-.41-1.24-1.24v-54.453c0-.826.415-1.24 1.24-1.24h3.632c.708 0 1.177.238 1.416.707l24.437 42.945h.352v-42.411c0-.826.415-1.24 1.24-1.24h3.898c.825 0 1.24.414 1.24 1.24v54.453c0 .83-.415 1.24-1.24 1.24h-3.275c-.65 0-1.272-.383-1.863-1.15l-24.347-42.503h-.356v42.413c0 .83-.41 1.24-1.24 1.24zm114.157-5.666h14.874c4.961 0 7.438-2.567 7.438-7.705v-30.191c0-5.134-2.477-7.705-7.438-7.705h-14.874c-.59 0-.884.266-.884.798v44.006c0 .532.294.798.884.798zm-7.348 4.426v-54.453c0-.826.41-1.24 1.24-1.24h21.78c4.073 0 7.274 1.165 9.606 3.497 2.332 2.333 3.499 5.533 3.499 9.607v30.725c0 4.073-1.167 7.274-3.499 9.606s-5.533 3.498-9.606 3.498h-21.78c-.83 0-1.24-.41-1.24-1.24zm109.106-11.864v-2.833c0-.826.414-1.24 1.24-1.24h3.987c.826 0 1.237.414 1.237 1.24v2.3c0 5.314 2.63 7.971 7.88 7.971h7.795c5.252 0 7.877-2.715 7.877-8.147v-3.009c0-4.25-3.51-7.024-10.534-8.323a157.65 157.65 0 0 1 -8.855-1.858c-2.95-.709-5.462-2.082-7.528-4.12-2.066-2.036-3.1-4.825-3.1-8.367v-4.34c0-4.073 1.167-7.273 3.499-9.606 2.332-2.332 5.537-3.498 9.606-3.498h9.83c4.014 0 7.204 1.166 9.563 3.498 2.36 2.333 3.541 5.533 3.541 9.607v2.215c0 .884-.383 1.326-1.15 1.326h-4.074c-.766 0-1.15-.442-1.15-1.326v-1.593c0-5.373-2.626-8.06-7.88-8.06h-7.525c-5.256 0-7.881 2.805-7.881 8.412v3.541c0 3.013 1.976 5.08 5.932 6.199 1.769.473 3.717.9 5.842 1.283s4.265.888 6.421 1.506c2.152.619 4.117 1.386 5.89 2.301 1.768.916 3.2 2.305 4.292 4.164 1.092 1.858 1.64 4.116 1.64 6.773v3.984c0 4.073-1.182 7.274-3.542 9.606-2.363 2.332-5.552 3.498-9.563 3.498h-10.186c-4.01 0-7.2-1.166-9.56-3.498-2.363-2.332-3.544-5.533-3.544-9.606zm115.484 13.104h-3.984c-.825 0-1.24-.41-1.24-1.24v-54.453c0-.826.415-1.24 1.24-1.24h3.984c.83 0 1.24.414 1.24 1.24v23.286c0 .532.298.798.885.798h21.96c.59 0 .887-.266.887-.798v-23.286c0-.826.411-1.24 1.237-1.24h3.987c.826 0 1.237.414 1.237 1.24v54.453c0 .83-.411 1.24-1.237 1.24h-3.987c-.826 0-1.237-.41-1.237-1.24v-23.905c0-.532-.297-.798-.888-.798h-21.96c-.586 0-.884.266-.884.798v23.905c0 .83-.41 1.24-1.24 1.24zm136.732-56.934h3.983c.825 0 1.24.384 1.24 1.15v42.68c0 4.132-1.15 7.348-3.455 9.653-2.3 2.3-5.49 3.451-9.56 3.451h-9.829c-4.073 0-7.274-1.15-9.606-3.451-2.332-2.305-3.498-5.521-3.498-9.653v-42.59c0-.825.41-1.24 1.24-1.24h3.983c.826 0 1.24.415 1.24 1.24v42.323c0 5.138 2.45 7.705 7.35 7.705h8.322c4.958 0 7.439-2.567 7.439-7.705v-42.321c0-.826.383-1.24 1.15-1.24zm93.168 56.934h-3.984c-.825 0-1.24-.41-1.24-1.24v-49.23c0-.532-.294-.798-.885-.798h-12.04c-.888 0-1.33-.41-1.33-1.236v-3.19c0-.825.442-1.24 1.33-1.24h32.318c.884 0 1.326.415 1.326 1.24v3.19c0 .825-.442 1.236-1.326 1.236h-12.04c-.592 0-.889.266-.889.798v49.23c0 .83-.41 1.24-1.24 1.24z" fill-rule="nonzero"/><path d="m183.343 35.01c36.52 0 70.312 11.68 97.85 31.506l-5.19 6.184c-26.121-18.658-58.11-29.636-92.66-29.636-44.078 0-83.984 17.866-112.866 46.75-28.884 28.884-46.75 68.79-46.75 112.868s17.866 83.982 46.75 112.868c28.882 28.882 68.788 46.748 112.866 46.748 34.55 0 66.54-10.981 92.663-29.636l5.193 6.184c-27.54 19.825-61.333 31.505-97.856 31.505-46.3 0-88.218-18.767-118.56-49.11-30.342-30.341-49.11-72.26-49.11-118.56 0-46.298 18.768-88.22 49.11-118.559 30.342-30.344 72.26-49.112 118.56-49.112"/><path d="m183.345 148.134c8 0 15.598 1.722 22.444 4.815-4.024 3.544-6.568 8.735-6.568 14.52 0 10.678 8.656 19.334 19.336 19.334 5.784 0 10.974-2.541 14.518-6.568a54.35 54.35 0 0 1 4.818 22.447c0 30.126-24.423 54.546-54.548 54.546-30.129 0-54.549-24.42-54.549-54.546 0-30.128 24.42-54.548 54.549-54.548"/></g><path d="m279.129 106.896c-24.513-24.51-58.38-39.674-95.784-39.674-37.407 0-71.274 15.165-95.786 39.674-24.51 24.513-39.672 58.378-39.672 95.784 0 37.407 15.162 71.274 39.672 95.786 24.512 24.51 58.38 39.674 95.786 39.674 37.404 0 71.271-15.164 95.784-39.674 24.51-24.512 39.674-58.38 39.674-95.786s-15.164-71.271-39.674-95.784m-95.784-47.726c39.628 0 75.507 16.063 101.478 42.033 25.97 25.97 42.033 61.85 42.033 101.478s-16.063 75.508-42.033 101.478-61.85 42.036-101.478 42.036c-39.63 0-75.508-16.066-101.478-42.036s-42.036-61.85-42.036-101.478 16.066-75.507 42.036-101.478c25.97-25.97 61.85-42.033 101.478-42.033" fill="#90c2c1"/><path d="m290.043 76.51c41.474 29.995 67.91 75.379 67.91 126.172s-26.433 96.175-67.906 126.17c33.297-32.33 53.886-76.922 53.886-126.17 0-49.25-20.59-93.843-53.89-126.172" fill="#ffffff"/></svg>