<svg enable-background="new 0 0 1984.3 2043.9" viewBox="0 0 1984.3 2043.9" xmlns="http://www.w3.org/2000/svg"><g fill="#535353" transform="matrix(14.1284 0 0 14.1284 -594.550179 -939.230466)"><path d="m44.5 191.7h3.2c1.1 0 1.7-.5 1.7-1.6v-1.4c0-1.1-.6-1.6-1.8-1.6h-3.1c-.2 0-.2.1-.2.2v4.2c0 .2.1.2.2.2zm0-6.4h2.9c1.1 0 1.7-.6 1.7-1.7v-1c0-1.1-.6-1.6-1.7-1.6h-3c-.2 0-.2.1-.2.2v3.9c.1.1.2.2.3.2zm-2.4 7.9v-13.8c0-.3.1-.4.4-.4h5.4c1.1 0 2 .3 2.6.9s.9 1.5.9 2.6v1.1c0 1.3-.6 2.2-1.9 2.5.6.1 1.1.3 1.5.8.4.4.6 1 .6 1.8v1.4c0 1.1-.3 2-.9 2.6s-1.5.9-2.6.9h-5.6c-.3 0-.4-.1-.4-.4z"/><path d="m64.2 193.6h-4.9c-1.1 0-2-.3-2.6-.9s-.9-1.5-.9-2.6v-4.5c0-1.1.3-2 .9-2.6s1.5-.9 2.6-.9h1.9c1.1 0 2 .3 2.6.9s.9 1.5.9 2.6v2.9c0 .3-.1.4-.4.4h-6.1c-.2 0-.2.1-.2.2v1c0 1.1.6 1.7 1.7 1.7h4.6c.3 0 .4.1.4.4v1.1c-.1.2-.3.3-.5.3zm-6-6.3h4c.2 0 .2-.1.2-.2v-1.4c0-.6-.1-1-.4-1.3s-.7-.4-1.2-.4h-1.2c-.6 0-1 .1-1.2.4-.3.3-.4.7-.4 1.3v1.4c0 .1 0 .2.2.2z"/><path d="m72.9 193.6h-4.2c-.3 0-.4-.1-.4-.4v-1.1c0-.2.1-.4.4-.4h3.8c1 0 1.5-.3 1.5-1v-.3c0-.6-.4-1.1-1.1-1.4l-2.5-1.2c-.8-.4-1.3-.8-1.7-1.2-.3-.4-.5-1-.5-1.7 0-1.9 1.1-2.9 3.2-2.9h3.8c.2 0 .4.1.4.4v1.1c0 .3-.1.4-.4.4h-3.2c-.5 0-.8.1-1 .2-.2.2-.4.4-.4.6v.2c0 .5.4.9 1.2 1.3l2.5 1.3c.8.3 1.3.8 1.6 1.2.3.5.4 1.1.4 1.8 0 2.1-1.1 3.1-3.4 3.1z"/><path d="m84.4 193.6h-4.2c-.3 0-.4-.1-.4-.4v-1.1c0-.2.1-.4.4-.4h3.8c1 0 1.5-.3 1.5-1v-.3c0-.6-.4-1.1-1.1-1.4l-2.5-1.2c-.8-.4-1.3-.8-1.7-1.2-.3-.4-.5-1-.5-1.7 0-1.9 1.1-2.9 3.2-2.9h3.8c.2 0 .4.1.4.4v1.1c0 .3-.1.4-.4.4h-3.3c-.5 0-.8.1-1 .2-.2.2-.4.4-.4.6v.2c0 .5.4.9 1.2 1.3l2.5 1.3c.8.3 1.3.8 1.6 1.2.3.5.4 1.1.4 1.8.1 2.1-1 3.1-3.3 3.1z"/><path d="m100 193.6h-4.9c-1.1 0-2-.3-2.6-.9s-.9-1.5-.9-2.6v-4.5c0-1.1.3-2 .9-2.6s1.5-.9 2.6-.9h1.9c1.1 0 2 .3 2.6.9s.9 1.5.9 2.6v2.9c0 .3-.1.4-.4.4h-6.1c-.2 0-.2.1-.2.2v1c0 1.1.6 1.7 1.7 1.7h4.6c.3 0 .4.1.4.4v1.1c-.1.2-.3.3-.5.3zm-6-6.3h4c.2 0 .2-.1.2-.2v-1.4c0-.6-.1-1-.4-1.3s-.7-.4-1.2-.4h-1.2c-.6 0-1 .1-1.2.4-.3.3-.4.7-.4 1.3v1.4c0 .1 0 .2.2.2z"/><path d="m106.4 193.6h-1.4c-.3 0-.4-.1-.4-.4v-10.8c0-.3.1-.4.4-.4h1.4c.3 0 .4.1.4.4v.9h.1c.2-.4.4-.7.9-.9.4-.2.9-.3 1.4-.3h.8c.3 0 .4.1.4.4v1.2c0 .3-.1.4-.4.4h-1.4c-1.3 0-1.9.7-1.9 2.1v7.2c.1.1 0 .2-.3.2z"/><path d="m120.2 190.1v-.6c0-.3.1-.4.4-.4h1.4c.3 0 .4.1.4.4v.4c0 .6.1 1.1.4 1.4s.7.4 1.4.4h1.6c.6 0 1.1-.1 1.4-.4s.4-.8.4-1.4v-.5c0-.5-.2-.9-.6-1.1-.4-.3-.8-.5-1.4-.5-.5-.1-1.1-.2-1.8-.4-.6-.2-1.2-.3-1.8-.5-.5-.2-1-.6-1.4-1.1s-.6-1.2-.6-2.1v-1c0-1.1.3-2 .9-2.6s1.5-.9 2.6-.9h2.4c1.1 0 2 .3 2.6.9s.9 1.5.9 2.6v.5c0 .3-.1.4-.4.4h-1.4c-.3 0-.4-.1-.4-.4v-.3c0-.6-.1-1.1-.4-1.4s-.7-.4-1.4-.4h-1.4c-.6 0-1.1.1-1.4.4s-.4.8-.4 1.5v.7c0 .7.5 1.1 1.5 1.4.4.1.9.2 1.4.3s1 .2 1.6.3c.5.2 1 .4 1.4.6s.8.6 1.1 1.1.4 1.1.4 1.8v.9c0 1.1-.3 2-.9 2.6s-1.5.9-2.6.9h-2.5c-1.1 0-2-.3-2.6-.9-.5-.7-.8-1.5-.8-2.6z"/><path d="m142.4 193.6h-4.9c-1.1 0-2-.3-2.6-.9s-.9-1.5-.9-2.6v-4.5c0-1.1.3-2 .9-2.6s1.5-.9 2.6-.9h1.9c1.1 0 2 .3 2.6.9s.9 1.5.9 2.6v2.9c0 .3-.1.4-.4.4h-6.1c-.2 0-.2.1-.2.2v1c0 1.1.6 1.7 1.7 1.7h4.6c.3 0 .4.1.4.4v1.1c-.1.2-.2.3-.5.3zm-5.9-6.3h4c.2 0 .2-.1.2-.2v-1.4c0-.6-.1-1-.4-1.3s-.7-.4-1.2-.4h-1.2c-.6 0-1 .1-1.2.4-.3.3-.4.7-.4 1.3v1.4c-.1.1 0 .2.2.2z"/><path d="m148.9 193.6h-1.4c-.3 0-.4-.1-.4-.4v-15.1c0-.3.1-.4.4-.4h1.4c.3 0 .4.1.4.4v5.2h.1c.4-.8 1.1-1.2 2.3-1.2h1c1.1 0 1.9.3 2.5.9s.9 1.5.9 2.6v7.6c0 .3-.1.4-.4.4h-1.4c-.3 0-.4-.1-.4-.4v-7.6c0-1.1-.6-1.7-1.7-1.7h-1.1c-1.2 0-1.9.6-1.9 1.9v7.3c.1.4-.1.5-.3.5z"/><path d="m168.6 193.6h-4.9c-1.1 0-2-.3-2.6-.9s-.9-1.5-.9-2.6v-4.5c0-1.1.3-2 .9-2.6s1.5-.9 2.6-.9h1.9c1.1 0 2 .3 2.6.9s.9 1.5.9 2.6v2.9c0 .3-.1.4-.4.4h-6.1c-.2 0-.2.1-.2.2v1c0 1.1.6 1.7 1.7 1.7h4.6c.3 0 .4.1.4.4v1.1c-.1.2-.2.3-.5.3zm-6-6.3h4c.2 0 .2-.1.2-.2v-1.4c0-.6-.1-1-.4-1.3s-.7-.4-1.2-.4h-1.2c-.6 0-1 .1-1.2.4-.3.3-.4.7-.4 1.3v1.4c0 .1.1.2.2.2z"/><path d="m175 193.6h-1.4c-.3 0-.4-.1-.4-.4v-10.8c0-.3.1-.4.4-.4h1.4c.3 0 .4.1.4.4v.8h.1c.4-.8 1.1-1.2 2.3-1.2h1c1.1 0 1.9.3 2.5.9s.9 1.5.9 2.6v7.6c0 .3-.1.4-.4.4h-1.4c-.3 0-.4-.1-.4-.4v-7.6c0-1.1-.6-1.7-1.7-1.7h-1.1c-1.2 0-1.9.6-1.9 1.9v7.3c.1.5 0 .6-.3.6z"/><path d="m48.5 211.1h-5c-.1 0-.2-.1-.2-.2v-9.6c0-.1.1-.2.2-.2h.7c.1 0 .2.1.2.2v8.6c0 .1.1.1.2.1h3.9c.1 0 .2.1.2.2v.6c0 .3-.1.3-.2.3z"/><path d="m61.1 211.1h-.8c-.1 0-.2-.1-.1-.2l2.9-9.6c0-.1.1-.2.3-.2h1.1c.2 0 .3.1.3.2l2.9 9.6c0 .1 0 .2-.1.2h-.8c-.1 0-.2-.1-.2-.2l-.7-2.3h-3.9l-.7 2.3c-.1.2-.1.2-.2.2zm2.8-8.8-1.6 5.4h3.3z"/><path d="m80.9 211.1h-.7c-.1 0-.2-.1-.2-.2v-9.6c0-.1.1-.2.2-.2h.6c.1 0 .2 0 .2.1l4.3 7.6h.1v-7.5c0-.1.1-.2.2-.2h.7c.1 0 .2.1.2.2v9.6c0 .1-.1.2-.2.2h-.6c-.1 0-.2-.1-.3-.2l-4.3-7.5h-.1v7.5c.1.2.1.2-.1.2z"/><path d="m101 210.1h2.6c.9 0 1.3-.5 1.3-1.4v-5.3c0-.9-.4-1.4-1.3-1.4h-2.6c-.1 0-.2 0-.2.1v7.8c.1.2.1.2.2.2zm-1.3.8v-9.6c0-.1.1-.2.2-.2h3.8c.7 0 1.3.2 1.7.6s.6 1 .6 1.7v5.4c0 .7-.2 1.3-.6 1.7s-1 .6-1.7.6h-3.8c-.1 0-.2 0-.2-.2z"/><path d="m118.9 208.8v-.5c0-.1.1-.2.2-.2h.7c.1 0 .2.1.2.2v.4c0 .9.5 1.4 1.4 1.4h1.4c.9 0 1.4-.5 1.4-1.4v-.5c0-.7-.6-1.2-1.9-1.5-.5-.1-1-.2-1.6-.3-.5-.1-1-.4-1.3-.7-.4-.4-.5-.8-.5-1.5v-.8c0-.7.2-1.3.6-1.7s1-.6 1.7-.6h1.7c.7 0 1.3.2 1.7.6s.6 1 .6 1.7v.4c0 .2-.1.2-.2.2h-.7c-.1 0-.2-.1-.2-.2v-.3c0-.9-.5-1.4-1.4-1.4h-1.3c-.9 0-1.4.5-1.4 1.5v.6c0 .5.3.9 1 1.1.3.1.7.2 1 .2.4.1.8.2 1.1.3.4.1.7.2 1 .4s.6.4.8.7.3.7.3 1.2v.7c0 .7-.2 1.3-.6 1.7s-1 .6-1.7.6h-1.8c-.7 0-1.3-.2-1.7-.6-.2-.4-.5-.9-.5-1.7z"/><path d="m139.3 211.1h-.7c-.1 0-.2-.1-.2-.2v-9.6c0-.1.1-.2.2-.2h.7c.1 0 .2.1.2.2v4.1c0 .1.1.1.2.1h3.9c.1 0 .2 0 .2-.1v-4.1c0-.1.1-.2.2-.2h.7c.1 0 .2.1.2.2v9.6c0 .1-.1.2-.2.2h-.7c-.1 0-.2-.1-.2-.2v-4.2c0-.1-.1-.1-.2-.1h-3.9c-.1 0-.2 0-.2.1v4.2c0 .2-.1.2-.2.2z"/><path d="m163.4 201.1h.7c.1 0 .2.1.2.2v7.5c0 .7-.2 1.3-.6 1.7s-1 .6-1.7.6h-1.7c-.7 0-1.3-.2-1.7-.6s-.6-1-.6-1.7v-7.5c0-.1.1-.2.2-.2h.7c.1 0 .2.1.2.2v7.5c0 .9.4 1.4 1.3 1.4h1.5c.9 0 1.3-.5 1.3-1.4v-7.5c0-.1 0-.2.2-.2z"/><path d="m179.8 211.1h-.7c-.1 0-.2-.1-.2-.2v-8.7c0-.1-.1-.1-.2-.1h-2.1c-.2 0-.2-.1-.2-.2v-.6c0-.1.1-.2.2-.2h5.7c.2 0 .2.1.2.2v.6c0 .1-.1.2-.2.2h-2.1c-.1 0-.2 0-.2.1v8.7c0 .2-.1.2-.2.2z"/></g><g clip-rule="evenodd" fill-rule="evenodd"><path d="m-95.6-176.9c10.9 0 21.1 3.5 29.3 9.4l-1.6 1.9c-7.8-5.6-17.4-8.9-27.8-8.9-13.2 0-25.2 5.4-33.8 14-8.7 8.7-14 20.6-14 33.8s5.4 25.2 14 33.8c8.7 8.7 20.6 14 33.8 14 10.4 0 19.9-3.3 27.8-8.9l1.6 1.9c-8.3 5.9-18.4 9.4-29.3 9.4-13.9 0-26.4-5.6-35.5-14.7s-14.7-21.7-14.7-35.5c0-13.9 5.6-26.4 14.7-35.5s21.6-14.7 35.5-14.7" fill="#535353" transform="matrix(14.1284 0 0 14.1284 2305.699516 2499.198242)"/><path d="m-95.6-93.8c2.4 0 4.7.5 6.7 1.4-1.2 1.1-2 2.6-2 4.4 0 3.2 2.6 5.8 5.8 5.8 1.7 0 3.3-.8 4.4-2 .9 2.1 1.4 4.3 1.4 6.7 0 9-7.3 16.4-16.4 16.4-9 0-16.4-7.3-16.4-16.4.2-9 7.5-16.3 16.5-16.3" fill="#535353" transform="matrix(14.1284 0 0 14.1284 2305.713645 1804.208118)"/><path d="m-108.5-124.1c-7.3-7.3-17.5-11.9-28.7-11.9s-21.4 4.5-28.7 11.9c-7.3 7.3-11.9 17.5-11.9 28.7s4.5 21.4 11.9 28.7c7.3 7.3 17.5 11.9 28.7 11.9s21.4-4.5 28.7-11.9c7.3-7.3 11.9-17.5 11.9-28.7s-4.6-21.3-11.9-28.7m-28.7-14.3c11.9 0 22.6 4.8 30.4 12.6s12.6 18.5 12.6 30.4-4.8 22.7-12.6 30.4-18.5 12.6-30.4 12.6-22.6-4.8-30.4-12.6-12.6-18.5-12.6-30.4 4.8-22.6 12.6-30.4c7.7-7.8 18.5-12.6 30.4-12.6" fill="#90c2c1" transform="matrix(14.1284 0 0 14.1284 2894.175633 2057.558586)"/><path d="m-110-146.4c12.4 9 20.4 22.6 20.4 37.8s-7.9 28.8-20.4 37.8c10-9.7 16.2-23.1 16.2-37.8s-6.2-28.1-16.2-37.8" fill="#535353" transform="matrix(14.1284 0 0 14.1284 2961.22902 2244.237136)"/></g></svg>